<svg xmlns="http://www.w3.org/2000/svg" version="1.1" xmlns:xlink="http://www.w3.org/1999/xlink" xmlns:svgjs="http://svgjs.dev/svgjs" width="1500" height="606" viewBox="0 0 1500 606"><g transform="matrix(1,0,0,1,-0.9090909090911055,-0.02358279191366819)"><svg viewBox="0 0 396 160" data-background-color="#ffffff" preserveAspectRatio="xMidYMid meet" height="606" width="1500" xmlns="http://www.w3.org/2000/svg" xmlns:xlink="http://www.w3.org/1999/xlink"><g id="tight-bounds" transform="matrix(1,0,0,1,0.24000000000003752,0.0062264797131774685)"><svg viewBox="0 0 395.5199999999999 159.98754704057365" height="159.98754704057365" width="395.5199999999999"><g><svg viewBox="0 0 397.4975999999999 160.7874847757765" height="159.98754704057365" width="395.5199999999999"><g><rect width="397.4975999999999" height="4.924708296301114" x="0" y="88.36173333263388" fill="#556970" opacity="1" stroke-width="0" stroke="transparent" fill-opacity="1" class="rect-yte-0" data-fill-palette-color="secondary" rx="1%" id="yte-0" data-palette-color="#556970"></rect></g><g transform="matrix(1,0,0,1,0.9887999999999693,106.17834816375466)"><svg viewBox="0 0 395.52 54.60913661202185" height="54.60913661202185" width="395.52"><g id="textblocktransform"><svg viewBox="0 0 395.52 54.60913661202185" height="54.60913661202185" width="395.52" id="textblock"><g><svg viewBox="0 0 395.52 54.60913661202185" height="54.60913661202185" width="395.52"><g transform="matrix(1,0,0,1,0,0)"><svg width="395.52" viewBox="1.05 -36.4 274.47999999999996 37.9" height="54.60913661202185" data-palette-color="#556970"><path d="M4.6-2.5L5.35-6.9 7.3-32.5 3.2-33.5 3.45-35.25 9.55-35 12.8-35 12.8-34 20.6-14.55 22.85-8 22.95-8 24.95-14.2 32.85-34 32.85-35 35.85-35 42.7-35.25 42.6-33.5 38.45-32.5 40.65-7.5 41.55-2.4 44.95-1.5 44.7 0.25 38.6 0 31.75 0.25 31.85-1.5 35.45-2.35 35.6-7 35.15-14.5 33.75-29.5 33.5-29.5 31.55-23.4 23.4-2.3 24.2 0 21.8 1 20.85-1.35 11.55-23.55 9.6-29.5 9.4-29.5 8.35-13.35 8.15-6.8 8.25-2.45 11.9-1.45 11.65 0.3 6.4 0 1.05 0.25 1.15-1.5 4.6-2.5ZM50.5-2.5L51.25-6.9 53.2-32.5 49.1-33.5 49.35-35.25 55.45-35 58.7-35 58.7-34 66.5-14.55 68.75-8 68.85-8 70.85-14.2 78.75-34 78.75-35 81.75-35 88.6-35.25 88.5-33.5 84.35-32.5 86.55-7.5 87.45-2.4 90.85-1.5 90.6 0.25 84.5 0 77.65 0.25 77.75-1.5 81.35-2.35 81.5-7 81.05-14.5 79.65-29.5 79.4-29.5 77.45-23.4 69.3-2.3 70.1 0 67.7 1 66.75-1.35 57.45-23.55 55.5-29.5 55.3-29.5 54.25-13.35 54.05-6.8 54.15-2.45 57.8-1.45 57.55 0.3 52.3 0 46.95 0.25 47.05-1.5 50.5-2.5ZM101.45-17.85L105.95-31.6 106.9-36 109.35-36.4 116.35-17.9 122.8-2.5 127-1.5 126.75 0.5 120.65 0 113.05 0.5 113.15-1.5 117.25-2.5 113.75-12 107.7-12.2 101.95-12 98.7-2.5 102.5-1.5 102.25 0.5 96.15 0 91.55 0.5 91.65-1.5 95.55-2.5 101.45-17.85ZM107.5-29.85L107.4-29.85 102.85-14.75 107.7-14.55 112.75-14.75 109.55-22.75 107.5-29.85ZM146.19-35L154.69-35 160.49-34.25 165.19-29.5 165.19-24.8 162.49-20.75 157.79-18.8 157.79-18.7 162.89-17.6 166.59-13.8 167.54-10.2 165.64-3.55 160.64-0.65 154.49 0.25 146.44 0 139.59 0.5 139.69-1.25 143.69-2.5 144.19-17.85 143.69-32.5 139.59-33.7 139.84-35.45 146.19-35ZM148.44-19.35L154.44-19.6 159.64-22.35 160.19-27.8 157.64-31.95 154.64-32.75 148.79-32.6 148.44-19.35ZM158.24-2.75L162.04-6.75 161.34-14.15 157.94-16.55 154.44-17.1 148.44-17.1 148.94-2.25 154.69-2 158.24-2.75ZM179.29-17.85L183.79-31.6 184.74-36 187.19-36.4 194.19-17.9 200.64-2.5 204.84-1.5 204.59 0.5 198.49 0 190.89 0.5 190.99-1.5 195.09-2.5 191.59-12 185.54-12.2 179.79-12 176.54-2.5 180.34-1.5 180.09 0.5 173.99 0 169.39 0.5 169.49-1.5 173.39-2.5 179.29-17.85ZM185.34-29.85L185.24-29.85 180.69-14.75 185.54-14.55 190.59-14.75 187.39-22.75 185.34-29.85ZM236.44 1L234.94 1.5 234.09 0 222.04-15.35 214.34-25.05 212.34-28.85 212.24-28.85 212.39-24.6 212.39-6.6 212.44-2.35 216.24-1.45 215.99 0.5 210.74 0 205.64 0.5 205.74-1.5 209.14-2.3 209.54-6.6 209.89-32.5 205.79-33.5 206.04-35.5 212.14-35 214.64-35 216.04-31.9 229.29-14.25 233.49-7.45 233.59-7.45 233.54-12.25 233.39-28.7 233.14-32.65 229.49-33.5 229.74-35.5 234.74-35 240.24-35.5 240.14-33.5 236.29-32.65 236.04-28.85 236.44 1ZM269.18-31.85L258.98-19.45 270.73-2.95 275.53-1.5 275.28 0.5 269.18 0 261.58 0.5 261.68-1.5 265.43-2.45 263.43-5.95 256.28-16.2 252.28-15.7 252.53-2.5 256.63-1.5 256.38 0.5 250.28 0 243.43 0.5 243.53-1.5 247.68-2.5 248.03-16.8 247.63-32.5 243.68-33.5 243.93-35.5 250.03-35 256.88-35.5 256.78-33.5 252.58-32.5 252.23-18 255.18-18.45 263.93-29.5 265.58-32.7 262.43-33.5 262.68-35.5 268.88-35 274.08-35.5 273.98-33.5 269.18-31.85Z" opacity="1" transform="matrix(1,0,0,1,0,0)" fill="#556970" class="wordmark-text-0" data-fill-palette-color="primary" id="text-0"></path></svg></g></svg></g></svg></g></svg></g><g transform="matrix(1,0,0,1,150.1581057572542,0)"><svg viewBox="0 0 97.18138848549152 75.4698267978142" height="75.4698267978142" width="97.18138848549152"><g><svg xmlns="http://www.w3.org/2000/svg" xmlns:xlink="http://www.w3.org/1999/xlink" version="1.1" x="8" y="0" viewBox="4.99999999998905 9.261 90.00000000001096 83.668" enable-background="new 0 0 100 100" xml:space="preserve" height="75.4698267978142" width="81.18138848549152" class="icon-icon-0" data-fill-palette-color="accent" id="icon-0"><path d="M93.561 85.324H91.227V81.603C91.227 80.808 90.579 80.172 89.787 80.172H85.766V51.977A1.29 1.29 0 0 0 84.481 50.69H79.223C78.512 50.69 77.932 51.274 77.932 51.977V80.174H67.445V52.223C67.445 51.512 66.867 50.932 66.157 50.932H60.898C60.189 50.932 59.616 51.512 59.616 52.223V80.174H40.388V51.977C40.388 51.274 39.811 50.69 39.099 50.69H33.843C33.131 50.69 32.554 51.274 32.554 51.977V80.174H22.067V52.223C22.067 51.512 21.49 50.932 20.777 50.932H15.522A1.29 1.29 0 0 0 14.233 52.223V80.174H10.211A1.43 1.43 0 0 0 8.776 81.604V85.326H6.436A1.44 1.44 0 0 0 5 86.766V91.491C5 92.286 5.643 92.929 6.437 92.929H93.561A1.44 1.44 0 0 0 95 91.491V86.766C95 85.973 94.354 85.324 93.561 85.324" fill="#aba944" data-fill-palette-color="accent"></path><path d="M53.378 33.605V35.321C53.378 35.936 52.858 36.432 52.235 36.432H48.413C47.785 36.432 47.27 35.936 47.27 35.321V33.781C44.813 33.383 42.778 32.427 41.11 30.873A1.72 1.72 0 0 1 41.085 28.371L42.466 27.037C42.776 26.732 43.131 26.514 43.612 26.514 43.662 26.514 43.714 26.516 43.766 26.519 44.252 26.526 44.714 26.722 45.052 27.064 46.158 28.203 47.815 28.777 49.964 28.777 53.867 28.777 53.867 27.381 53.867 26.783 53.867 26.095 53.867 25.648 51.851 25.432L48.744 25.165C42.338 24.65 41.382 20.831 41.382 18.603 41.382 15.234 43.653 12.788 47.218 11.954V10.37C47.218 9.754 47.735 9.261 48.36 9.261H52.177C52.811 9.261 53.319 9.754 53.319 10.37V12.011C54.967 12.387 56.491 13.006 57.739 13.903 58.155 14.209 58.42 14.677 58.463 15.184A1.74 1.74 0 0 1 57.941 16.549L56.601 17.853A1.84 1.84 0 0 1 54.26 18.03C53.088 17.2 51.698 16.798 50.004 16.798 46.964 16.798 46.964 18.062 46.964 18.602 46.964 19.232 46.964 19.728 49.202 19.954L52.25 20.221C54.046 20.394 59.45 20.916 59.45 26.782 59.45 30.236 57.138 32.703 53.378 33.605" fill="#aba944" data-fill-palette-color="accent"></path><g fill="#aba944" data-fill-palette-color="accent"><path d="M92.902 41.179L61.135 23.627A9.8 9.8 0 0 1 61.637 26.78C61.637 30.683 59.395 33.738 55.561 35.214V35.319C55.561 37.139 54.067 38.617 52.233 38.617H48.41C46.646 38.617 45.199 37.251 45.09 35.531 42.99 34.93 41.151 33.903 39.613 32.469A3.907 3.907 0 0 1 39.562 26.798L40.931 25.467C41.209 25.196 41.5 24.973 41.808 24.797A7.7 7.7 0 0 1 40.261 22.854L6.949 41.26A2.734 2.734 0 0 0 8.271 46.387H91.739A2.73 2.73 0 0 0 94.473 43.654 2.74 2.74 0 0 0 92.902 41.179" fill="#aba944" data-fill-palette-color="accent"></path></g></svg></g></svg></g><g><rect width="73.62498575725422" height="4.924708296301114" y="69.54511850151309" x="247.33949424274573" fill="#556970" data-fill-palette-color="secondary"></rect><rect width="73.62498575725422" height="4.924708296301114" y="69.54511850151309" x="76.53311999999998" fill="#556970" data-fill-palette-color="secondary"></rect></g></svg></g><defs></defs></svg><rect width="395.5199999999999" height="159.98754704057365" fill="none" stroke="none" visibility="hidden"></rect></g></svg></g></svg>